<svg width="79" height="115" viewBox="0 0 79 115" fill="none" xmlns="http://www.w3.org/2000/svg">
<path d="M57.5 0C49.0478 -1.00791e-07 40.6995 1.86338 33.0495 5.45746C25.3996 9.05155 18.636 14.288 13.2404 20.7939C7.8448 27.2998 3.94984 34.9153 1.83283 43.0981C-0.284183 51.2808 -0.571181 59.8297 0.992265 68.1361C2.55571 76.4424 5.93115 84.3019 10.8783 91.1551C15.8254 98.0082 22.2225 103.686 29.6142 107.786C37.006 111.885 45.2105 114.304 53.6436 114.871C62.0768 115.437 70.5312 114.138 78.405 111.065L73.1788 97.6739C67.2734 99.9786 60.9326 100.953 54.6077 100.528C48.2828 100.103 42.1295 98.2884 36.5857 95.2141C31.0419 92.1399 26.244 87.8812 22.5337 82.7413C18.8234 77.6014 16.2918 71.7068 15.1192 65.4771C13.9466 59.2473 14.1619 52.8356 15.7496 46.6985C17.3374 40.5615 20.2586 34.8499 24.3053 29.9704C28.352 25.091 33.4247 21.1637 39.1622 18.4681C44.8997 15.7725 51.1609 14.375 57.5 14.375V0Z" fill="#00E0C1"/>
</svg>
