<svg width="114" height="115" viewBox="0 0 114 115" fill="none" xmlns="http://www.w3.org/2000/svg">
<path d="M57.5 0C46.7715 -1.27936e-07 36.257 3.00151 27.1453 8.66518C18.0335 14.3288 10.6881 22.4287 5.93937 32.049C1.19067 41.6694 -0.77185 52.4263 0.273714 63.1038C1.31928 73.7812 5.33122 83.9531 11.8559 92.4695C18.3806 100.986 27.1578 107.507 37.1951 111.296C47.2324 115.084 58.1295 115.989 68.6542 113.908C79.1789 111.827 88.9114 106.842 96.7514 99.5188C104.591 92.1952 110.226 82.8242 113.018 72.4655L99.1387 68.7241C97.0445 76.4932 92.8185 83.5214 86.9385 89.0141C81.0586 94.5068 73.7592 98.2449 65.8656 99.8058C57.9721 101.367 49.7993 100.688 42.2713 97.8467C34.7434 95.0053 28.1605 90.1144 23.2669 83.7271C18.3734 77.3399 15.3645 69.7109 14.5803 61.7028C13.7961 53.6948 15.268 45.627 18.8295 38.4118C22.3911 31.1966 27.9002 25.1216 34.7339 20.8739C41.5677 16.6261 49.4536 14.375 57.5 14.375V0Z" fill="#F13B5E"/>
</svg>
