<svg width="115" height="115" viewBox="0 0 115 115" fill="none" xmlns="http://www.w3.org/2000/svg">
<path d="M57.5 0C44.5595 -1.54314e-07 31.9973 4.36509 21.845 12.3893C11.6927 20.4136 4.54401 31.6278 1.55495 44.2184C-1.43411 56.809 -0.0887364 70.0397 5.3735 81.7709C10.8357 93.5021 20.0954 103.048 31.6551 108.864C43.2148 114.681 56.3985 116.428 69.0742 113.823C81.7498 111.218 93.1762 104.414 101.506 94.5103C109.835 84.6068 114.58 72.1831 114.973 59.2486C115.367 46.3141 111.386 33.6249 103.674 23.2333L92.1306 31.8C97.9144 39.5937 100.9 49.1105 100.605 58.8115C100.31 68.5124 96.7511 77.8301 90.5041 85.2578C84.2572 92.6854 75.6874 97.7887 66.1806 99.7423C56.6739 101.696 46.7861 100.386 38.1163 96.0232C29.4466 91.6609 22.5018 84.5016 18.4051 75.7032C14.3084 66.9048 13.2994 56.9817 15.5412 47.5388C17.783 38.0959 23.1446 29.6852 30.7588 23.667C38.373 17.6488 47.7946 14.375 57.5 14.375V0Z" fill="#C441E8"/>
</svg>
