<svg width="31" height="35" viewBox="0 0 31 35" fill="none" xmlns="http://www.w3.org/2000/svg">
<path d="M29.8544 1.15694C29.5536 0.724839 29.1485 0.408846 28.64 0.208393C28.3161 0.0697615 27.9767 0.000324095 27.6219 0.000324095V0H3.37845C3.02381 0 2.68473 0.0694374 2.3608 0.208069C1.85197 0.40836 1.44701 0.724758 1.14633 1.15661C0.845732 1.58847 0.69519 2.06635 0.69519 2.59082V32.4091C0.69519 32.9337 0.845732 33.4114 1.14633 33.8437C1.44701 34.2755 1.85197 34.5918 2.3608 34.792C2.68441 34.9306 3.02381 34.9999 3.37845 34.9999C4.10354 34.9999 4.74322 34.7453 5.29856 34.2368L15.5003 24.4279L25.702 34.2371C26.2418 34.7298 26.8818 34.9766 27.6218 34.9766C28.0075 34.9766 28.3468 34.9153 28.6399 34.7919C29.1484 34.5917 29.5535 34.2754 29.8543 33.8431C30.1549 33.4114 30.3052 32.9336 30.3052 32.409V2.59114C30.3052 2.06667 30.1547 1.5888 29.8544 1.15694ZM27.3443 31.6916L17.5592 22.2997L15.5003 20.3337L13.4415 22.2997L3.65645 31.6916V2.96134H27.3443V31.6916Z" fill="#1D1D1D"/>
</svg>
