<svg width="35" height="35" viewBox="0 0 35 35" fill="none" xmlns="http://www.w3.org/2000/svg">
<path d="M1.09375 21.875H4.6807L5.31125 23.7672L2.50797 26.5705C2.08086 26.9976 2.08086 27.6899 2.50797 28.117L6.88297 32.492C7.30953 32.9191 8.00297 32.9191 8.42953 32.492L11.2328 29.6887L13.125 30.3193V33.9062C13.125 34.51 13.615 35 14.2188 35H20.7812C21.385 35 21.875 34.51 21.875 33.9062V30.3193L23.7672 29.6887L26.5705 32.492C26.997 32.9191 27.6905 32.9191 28.117 32.492L32.492 28.117C32.9191 27.6899 32.9191 26.9976 32.492 26.5705L29.6887 23.7672L30.3193 21.875H33.9062C34.51 21.875 35 21.385 35 20.7812V14.2188C35 13.615 34.51 13.125 33.9062 13.125H30.3193L29.6887 11.2328L32.492 8.42953C32.9191 8.00242 32.9191 7.31008 32.492 6.88297L28.117 2.50797C27.6905 2.08086 26.997 2.08086 26.5705 2.50797L23.7672 5.31125L21.875 4.6807V1.09375C21.875 0.49 21.385 0 20.7812 0H14.2188C13.615 0 13.125 0.49 13.125 1.09375V4.6807L11.2328 5.31125L8.42953 2.50797C8.00297 2.08086 7.30953 2.08086 6.88297 2.50797L2.50797 6.88297C2.08086 7.31008 2.08086 8.00242 2.50797 8.42953L5.31125 11.2328L4.6807 13.125H1.09375C0.49 13.125 0 13.615 0 14.2188V20.7812C0 21.385 0.49 21.875 1.09375 21.875ZM2.1875 15.3125H5.46875C5.93961 15.3125 6.35742 15.0112 6.50617 14.5644L7.59992 11.2831C7.73063 10.8899 7.62836 10.4568 7.33578 10.1642L4.82836 7.65625L7.65625 4.82836L10.1642 7.33578C10.4568 7.62891 10.8905 7.73063 11.2831 7.59992L14.5644 6.50617C15.0112 6.35742 15.3125 5.93961 15.3125 5.46875V2.1875H19.6875V5.46875C19.6875 5.93961 19.9888 6.35742 20.4356 6.50617L23.7169 7.59992C24.1106 7.73117 24.5432 7.62891 24.8358 7.33578L27.3438 4.82836L30.1716 7.65625L27.6642 10.1642C27.3711 10.4573 27.2688 10.8905 27.4001 11.2831L28.4938 14.5644C28.6426 15.0112 29.0604 15.3125 29.5312 15.3125H32.8125V19.6875H29.5312C29.0604 19.6875 28.6426 19.9888 28.4938 20.4356L27.4001 23.7169C27.2694 24.1101 27.3716 24.5432 27.6642 24.8358L30.1716 27.3438L27.3438 30.1716L24.8358 27.6642C24.5427 27.3711 24.1095 27.2683 23.7169 27.4001L20.4356 28.4938C19.9888 28.6426 19.6875 29.0604 19.6875 29.5312V32.8125H15.3125V29.5312C15.3125 29.0604 15.0112 28.6426 14.5644 28.4938L11.2831 27.4001C10.891 27.2694 10.4568 27.3716 10.1642 27.6642L7.65625 30.1716L4.82836 27.3438L7.33578 24.8358C7.62891 24.5427 7.73117 24.1095 7.59992 23.7169L6.50617 20.4356C6.35742 19.9888 5.93961 19.6875 5.46875 19.6875H2.1875V15.3125Z" fill="black"/>
<path d="M17.5 21.875C19.9123 21.875 21.875 19.9123 21.875 17.5C21.875 15.0877 19.9123 13.125 17.5 13.125C15.0877 13.125 13.125 15.0877 13.125 17.5C13.125 19.9123 15.0877 21.875 17.5 21.875ZM17.5 15.3125C18.7064 15.3125 19.6875 16.2936 19.6875 17.5C19.6875 18.7064 18.7064 19.6875 17.5 19.6875C16.2936 19.6875 15.3125 18.7064 15.3125 17.5C15.3125 16.2936 16.2936 15.3125 17.5 15.3125Z" fill="black"/>
</svg>
