<svg width="35" height="35" viewBox="0 0 35 35" fill="none" xmlns="http://www.w3.org/2000/svg">
<g clip-path="url(#clip0)">
<path d="M21.8752 23.1249C21.8752 23.4634 21.7513 23.7567 21.5041 24.0037C21.2567 24.2514 20.9636 24.375 20.625 24.375H14.3751C14.0363 24.375 13.7435 24.2514 13.496 24.0037C13.2487 23.7568 13.125 23.4635 13.125 23.1249V20H0V29.3751C0 30.2343 0.305857 30.9698 0.917914 31.5817C1.52983 32.1937 2.26564 32.4997 3.12507 32.4997H31.8751C32.7343 32.4997 33.4701 32.1937 34.0821 31.5817C34.6943 30.9698 35 30.2343 35 29.3751V20H21.8752V23.1249Z" fill="#1D1D1D"/>
<path d="M20.0006 20H15.0001V22.5H20.0006V20Z" fill="#1D1D1D"/>
<path d="M34.082 8.41794C33.4701 7.80588 32.7343 7.50002 31.8751 7.50002H24.9999V4.37489C24.9999 3.85402 24.8177 3.41142 24.453 3.04679C24.0887 2.68238 23.6458 2.5 23.1251 2.5H11.8751C11.3544 2.5 10.9117 2.68238 10.547 3.04679C10.1823 3.41121 10.0001 3.85395 10.0001 4.37489V7.50002H3.12507C2.26571 7.50002 1.5299 7.80588 0.917915 8.41794C0.305858 9.02993 0 9.76533 0 10.6248V18.1249H34.9999V10.6248C34.9999 9.76533 34.6943 9.02993 34.082 8.41794ZM22.5001 7.50002H12.5001V4.99988H22.5001V7.50002Z" fill="#1D1D1D"/>
</g>
<defs>
<clipPath id="clip0">
<rect width="34.9999" height="35" fill="white"/>
</clipPath>
</defs>
</svg>
