<svg width="35" height="35" viewBox="0 0 35 35" fill="none" xmlns="http://www.w3.org/2000/svg">
<g clip-path="url(#clip0)">
<path d="M3.75006 13.75C2.70819 13.75 1.8229 14.1144 1.09359 14.8437C0.364622 15.5726 0 16.4579 0 17.4998C0 18.5412 0.364622 19.427 1.09387 20.1561C1.82311 20.8851 2.7086 21.2496 3.75034 21.2496C4.79187 21.2496 5.67722 20.8851 6.40654 20.1561C7.13557 19.4271 7.5002 18.5413 7.5002 17.4998C7.5002 16.4579 7.13557 15.5726 6.40633 14.8436C5.67722 14.1146 4.7918 13.75 3.75006 13.75Z" fill="#1D1D1D"/>
<path d="M3.75031 3.75C2.70843 3.75 1.82315 4.11462 1.09384 4.84366C0.364866 5.5729 0.000244141 6.45819 0.000244141 7.49986C0.000244141 8.54166 0.364661 9.42702 1.09384 10.1563C1.82308 10.8853 2.70857 11.2498 3.75031 11.2498C4.79184 11.2498 5.67719 10.8852 6.40651 10.1563C7.13554 9.42702 7.50017 8.5416 7.50017 7.49986C7.50017 6.45819 7.13554 5.5729 6.40651 4.84366C5.67754 4.11462 4.79218 3.75 3.75031 3.75Z" fill="#1D1D1D"/>
<path d="M3.75031 23.7505C2.70843 23.7505 1.82287 24.1148 1.09384 24.8437C0.364866 25.5732 0.000244141 26.4586 0.000244141 27.4999C0.000244141 28.5422 0.364661 29.4271 1.09384 30.1565C1.82308 30.8856 2.70857 31.2501 3.75031 31.2501C4.79184 31.2501 5.67719 30.8856 6.40651 30.1565C7.13554 29.4271 7.50017 28.5422 7.50017 27.4999C7.50017 26.4585 7.13554 25.5727 6.40651 24.8437C5.67754 24.1148 4.79218 23.7505 3.75031 23.7505Z" fill="#1D1D1D"/>
<path d="M34.815 5.1855C34.6909 5.06215 34.5448 5.00024 34.3753 5.00024H10.6252C10.456 5.00024 10.3095 5.06195 10.1858 5.1855C10.0622 5.30945 10.0002 5.45565 10.0002 5.62489V9.37517C10.0002 9.54448 10.0622 9.6906 10.1858 9.81463C10.3095 9.93811 10.4561 9.99988 10.6252 9.99988H34.3753C34.5448 9.99988 34.6911 9.93831 34.815 9.81463C34.9388 9.69067 35.0003 9.54448 35.0003 9.37517V5.62496C35.0003 5.45571 34.9385 5.30925 34.815 5.1855Z" fill="#1D1D1D"/>
<path d="M34.3753 15H10.6252C10.456 15 10.3095 15.0616 10.1858 15.1855C10.0622 15.3091 10.0002 15.4557 10.0002 15.6249V19.3751C10.0002 19.5442 10.0622 19.6906 10.1858 19.8143C10.3095 19.9383 10.4561 20 10.6252 20H34.3753C34.5448 20 34.6911 19.9384 34.815 19.8143C34.9388 19.6906 35.0003 19.5442 35.0003 19.3751V15.6249C35.0003 15.4557 34.9386 15.3089 34.815 15.1855C34.6909 15.0618 34.5447 15 34.3753 15Z" fill="#1D1D1D"/>
<path d="M34.3753 25H10.6252C10.456 25 10.3095 25.0618 10.1858 25.1857C10.0622 25.3095 10.0002 25.4558 10.0002 25.6249V29.375C10.0002 29.5445 10.0622 29.6908 10.1858 29.8147C10.3095 29.9383 10.4561 29.9998 10.6252 29.9998H34.3753C34.5448 29.9998 34.6911 29.9383 34.815 29.8147C34.9388 29.6908 35.0003 29.5445 35.0003 29.375V25.6249C35.0003 25.4558 34.9386 25.309 34.815 25.1857C34.6909 25.0623 34.5447 25 34.3753 25Z" fill="#1D1D1D"/>
</g>
<defs>
<clipPath id="clip0">
<rect width="35" height="35" fill="white"/>
</clipPath>
</defs>
</svg>
