<svg width="35" height="35" viewBox="0 0 35 35" fill="none" xmlns="http://www.w3.org/2000/svg">
<g clip-path="url(#clip0)">
<path d="M33.0075 5.74232C32.5133 5.24753 31.9269 5.00009 31.2499 5.00009H28.7501V3.12502C28.7501 2.26582 28.4439 1.53009 27.832 0.918107C27.2197 0.306127 26.4844 0 25.6248 0H24.3751C23.5155 0 22.7799 0.306127 22.168 0.918175C21.5558 1.53009 21.2498 2.26589 21.2498 3.12509V5.00016H13.7502V3.12509C13.7502 2.26589 13.4441 1.53016 12.832 0.918175C12.2201 0.306127 11.4844 0 10.6249 0H9.375C8.51566 0 7.77993 0.306127 7.16788 0.918175C6.55597 1.53009 6.24977 2.26589 6.24977 3.12509V5.00016H3.75C3.07275 5.00016 2.4869 5.24759 1.99211 5.74239C1.49731 6.23712 1.24988 6.82324 1.24988 7.50028V32.5003C1.24988 33.1768 1.49731 33.7628 1.99211 34.2579C2.48684 34.7525 3.07269 35 3.75 35H31.2494C31.9264 35 32.5129 34.7526 33.0071 34.2579C33.5019 33.763 33.7494 33.1768 33.7494 32.5003V7.50021C33.7494 6.82297 33.5021 6.23712 33.0075 5.74232ZM23.7501 3.1253C23.7501 2.94285 23.8082 2.79297 23.9252 2.67606C24.0423 2.55901 24.1921 2.50039 24.3747 2.50039H25.6244C25.807 2.50039 25.9563 2.55881 26.0738 2.67606C26.1909 2.79318 26.2494 2.94306 26.2494 3.1253V8.7501C26.2494 8.93247 26.1909 9.08208 26.0738 9.19933C25.9563 9.31624 25.807 9.375 25.6244 9.375H24.3747C24.1921 9.375 24.0423 9.31652 23.9252 9.19933C23.8082 9.08201 23.7501 8.93247 23.7501 8.7501V3.1253ZM8.75009 3.1253C8.75009 2.94285 8.80858 2.79297 8.92577 2.67606C9.04302 2.55901 9.19263 2.50039 9.375 2.50039H10.6249C10.8073 2.50039 10.9572 2.55881 11.0741 2.67606C11.1912 2.79318 11.2499 2.94306 11.2499 3.1253V8.7501C11.2499 8.93247 11.1914 9.08229 11.0741 9.19933C10.9569 9.31624 10.8073 9.375 10.6249 9.375H9.375C9.19263 9.375 9.04281 9.31652 8.92577 9.19933C8.80886 9.08201 8.75009 8.93247 8.75009 8.7501V3.1253ZM31.2494 32.4999H3.75V12.5001H31.2494V32.4999Z" fill="#1D1D1D"/>
</g>
<defs>
<clipPath id="clip0">
<rect width="35" height="35" fill="white"/>
</clipPath>
</defs>
</svg>
